<?xml version="1.0" encoding="UTF-8" standalone="no"?><svg xmlns="http://www.w3.org/2000/svg" xmlns:xlink="http://www.w3.org/1999/xlink" contentStyleType="text/css" height="541px" preserveAspectRatio="none" style="width:1097px;height:541px;background:#FFFFFF;" version="1.1" viewBox="0 0 1097 541" width="1097px" zoomAndPan="magnify"><defs/><g><line style="stroke:#181818;stroke-width:0.5;stroke-dasharray:5.0,5.0;" x1="24" x2="24" y1="81.2969" y2="460.7578"/><line style="stroke:#181818;stroke-width:0.5;stroke-dasharray:5.0,5.0;" x1="129" x2="129" y1="81.2969" y2="460.7578"/><line style="stroke:#181818;stroke-width:0.5;stroke-dasharray:5.0,5.0;" x1="389.5" x2="389.5" y1="81.2969" y2="460.7578"/><line style="stroke:#181818;stroke-width:0.5;stroke-dasharray:5.0,5.0;" x1="521.5" x2="521.5" y1="81.2969" y2="460.7578"/><line style="stroke:#181818;stroke-width:0.5;stroke-dasharray:5.0,5.0;" x1="881" x2="881" y1="81.2969" y2="460.7578"/><line style="stroke:#181818;stroke-width:0.5;stroke-dasharray:5.0,5.0;" x1="1011" x2="1011" y1="81.2969" y2="460.7578"/><text fill="#000000" font-family="sans-serif" font-size="14" lengthAdjust="spacing" textLength="32" x="5" y="77.9951">User</text><ellipse cx="24" cy="13.5" fill="#E2E2F0" rx="8" ry="8" style="stroke:#181818;stroke-width:0.5;"/><path d="M24,21.5 L24,48.5 M11,29.5 L37,29.5 M24,48.5 L11,63.5 M24,48.5 L37,63.5 " fill="none" style="stroke:#181818;stroke-width:0.5;"/><text fill="#000000" font-family="sans-serif" font-size="14" lengthAdjust="spacing" textLength="32" x="5" y="472.7529">User</text><ellipse cx="24" cy="484.5547" fill="#E2E2F0" rx="8" ry="8" style="stroke:#181818;stroke-width:0.5;"/><path d="M24,492.5547 L24,519.5547 M11,500.5547 L37,500.5547 M24,519.5547 L11,534.5547 M24,519.5547 L37,534.5547 " fill="none" style="stroke:#181818;stroke-width:0.5;"/><rect fill="#E2E2F0" height="30.2969" rx="2.5" ry="2.5" style="stroke:#181818;stroke-width:0.5;" width="152" x="53" y="50"/><text fill="#000000" font-family="sans-serif" font-size="14" lengthAdjust="spacing" textLength="138" x="60" y="69.9951">NFT Front-end Page</text><rect fill="#E2E2F0" height="30.2969" rx="2.5" ry="2.5" style="stroke:#181818;stroke-width:0.5;" width="152" x="53" y="459.7578"/><text fill="#000000" font-family="sans-serif" font-size="14" lengthAdjust="spacing" textLength="138" x="60" y="479.7529">NFT Front-end Page</text><rect fill="#E2E2F0" height="30.2969" rx="2.5" ry="2.5" style="stroke:#181818;stroke-width:0.5;" width="85" x="347.5" y="50"/><text fill="#000000" font-family="sans-serif" font-size="14" lengthAdjust="spacing" textLength="71" x="354.5" y="69.9951">Metamask</text><rect fill="#E2E2F0" height="30.2969" rx="2.5" ry="2.5" style="stroke:#181818;stroke-width:0.5;" width="85" x="347.5" y="459.7578"/><text fill="#000000" font-family="sans-serif" font-size="14" lengthAdjust="spacing" textLength="71" x="354.5" y="479.7529">Metamask</text><rect fill="#E2E2F0" height="30.2969" rx="2.5" ry="2.5" style="stroke:#181818;stroke-width:0.5;" width="117" x="463.5" y="50"/><text fill="#000000" font-family="sans-serif" font-size="14" lengthAdjust="spacing" textLength="103" x="470.5" y="69.9951">Smart Contract</text><rect fill="#E2E2F0" height="30.2969" rx="2.5" ry="2.5" style="stroke:#181818;stroke-width:0.5;" width="117" x="463.5" y="459.7578"/><text fill="#000000" font-family="sans-serif" font-size="14" lengthAdjust="spacing" textLength="103" x="470.5" y="479.7529">Smart Contract</text><rect fill="#E2E2F0" height="30.2969" rx="2.5" ry="2.5" style="stroke:#181818;stroke-width:0.5;" width="80" x="841" y="50"/><text fill="#000000" font-family="sans-serif" font-size="14" lengthAdjust="spacing" textLength="66" x="848" y="69.9951">ChainLink</text><rect fill="#E2E2F0" height="30.2969" rx="2.5" ry="2.5" style="stroke:#181818;stroke-width:0.5;" width="80" x="841" y="459.7578"/><text fill="#000000" font-family="sans-serif" font-size="14" lengthAdjust="spacing" textLength="66" x="848" y="479.7529">ChainLink</text><rect fill="#E2E2F0" height="30.2969" rx="2.5" ry="2.5" style="stroke:#181818;stroke-width:0.5;" width="160" x="931" y="50"/><text fill="#000000" font-family="sans-serif" font-size="14" lengthAdjust="spacing" textLength="146" x="938" y="69.9951">ethereum blockchain</text><rect fill="#E2E2F0" height="30.2969" rx="2.5" ry="2.5" style="stroke:#181818;stroke-width:0.5;" width="160" x="931" y="459.7578"/><text fill="#000000" font-family="sans-serif" font-size="14" lengthAdjust="spacing" textLength="146" x="938" y="479.7529">ethereum blockchain</text><polygon fill="#181818" points="117,108.4297,127,112.4297,117,116.4297,121,112.4297" style="stroke:#181818;stroke-width:1.0;"/><line style="stroke:#181818;stroke-width:1.0;" x1="24" x2="123" y1="112.4297" y2="112.4297"/><text fill="#000000" font-family="sans-serif" font-size="13" lengthAdjust="spacing" textLength="60" x="31" y="107.3638">click mint</text><polygon fill="#181818" points="378,137.5625,388,141.5625,378,145.5625,382,141.5625" style="stroke:#181818;stroke-width:1.0;"/><line style="stroke:#181818;stroke-width:1.0;" x1="129" x2="384" y1="141.5625" y2="141.5625"/><text fill="#000000" font-family="sans-serif" font-size="13" lengthAdjust="spacing" textLength="237" x="136" y="136.4966">wait for signature for minting process</text><polygon fill="#181818" points="35,166.6953,25,170.6953,35,174.6953,31,170.6953" style="stroke:#181818;stroke-width:1.0;"/><line style="stroke:#181818;stroke-width:1.0;" x1="29" x2="389" y1="170.6953" y2="170.6953"/><text fill="#000000" font-family="sans-serif" font-size="13" lengthAdjust="spacing" textLength="204" x="41" y="165.6294">ask user to sign this transaction</text><polygon fill="#181818" points="378,195.8281,388,199.8281,378,203.8281,382,199.8281" style="stroke:#181818;stroke-width:1.0;"/><line style="stroke:#181818;stroke-width:1.0;" x1="24" x2="384" y1="199.8281" y2="199.8281"/><text fill="#000000" font-family="sans-serif" font-size="13" lengthAdjust="spacing" textLength="42" x="31" y="194.7622">signed</text><polygon fill="#181818" points="510,224.9609,520,228.9609,510,232.9609,514,228.9609" style="stroke:#181818;stroke-width:1.0;"/><line style="stroke:#181818;stroke-width:1.0;" x1="390" x2="516" y1="228.9609" y2="228.9609"/><text fill="#000000" font-family="sans-serif" font-size="13" lengthAdjust="spacing" textLength="108" x="397" y="223.895">call mint method</text><line style="stroke:#181818;stroke-width:1.0;" x1="522" x2="564" y1="258.0938" y2="258.0938"/><line style="stroke:#181818;stroke-width:1.0;" x1="564" x2="564" y1="258.0938" y2="271.0938"/><line style="stroke:#181818;stroke-width:1.0;" x1="523" x2="564" y1="271.0938" y2="271.0938"/><polygon fill="#181818" points="533,267.0938,523,271.0938,533,275.0938,529,271.0938" style="stroke:#181818;stroke-width:1.0;"/><text fill="#FF0000" font-family="sans-serif" font-size="13" font-weight="bold" lengthAdjust="spacing" textLength="146" x="534" y="253.0278">check prerequisites</text><polygon fill="#181818" points="869,296.2266,879,300.2266,869,304.2266,873,300.2266" style="stroke:#181818;stroke-width:1.0;"/><line style="stroke:#181818;stroke-width:1.0;" x1="522" x2="875" y1="300.2266" y2="300.2266"/><text fill="#000000" font-family="sans-serif" font-size="13" lengthAdjust="spacing" textLength="230" x="529" y="295.1606">random number generation request</text><polygon fill="#181818" points="533,325.3594,523,329.3594,533,333.3594,529,329.3594" style="stroke:#181818;stroke-width:1.0;"/><line style="stroke:#181818;stroke-width:1.0;" x1="527" x2="880" y1="329.3594" y2="329.3594"/><text fill="#000000" font-family="sans-serif" font-size="13" lengthAdjust="spacing" textLength="287" x="539" y="324.2935">random number generation success callback</text><line style="stroke:#181818;stroke-width:1.0;" x1="522" x2="564" y1="358.4922" y2="358.4922"/><line style="stroke:#181818;stroke-width:1.0;" x1="564" x2="564" y1="358.4922" y2="371.4922"/><line style="stroke:#181818;stroke-width:1.0;" x1="523" x2="564" y1="371.4922" y2="371.4922"/><polygon fill="#181818" points="533,367.4922,523,371.4922,533,375.4922,529,371.4922" style="stroke:#181818;stroke-width:1.0;"/><text fill="#FF0000" font-family="sans-serif" font-size="13" font-weight="bold" lengthAdjust="spacing" textLength="340" x="534" y="353.4263">generate gene series via this random number</text><line style="stroke:#181818;stroke-width:1.0;" x1="522" x2="564" y1="400.625" y2="400.625"/><line style="stroke:#181818;stroke-width:1.0;" x1="564" x2="564" y1="400.625" y2="413.625"/><line style="stroke:#181818;stroke-width:1.0;" x1="523" x2="564" y1="413.625" y2="413.625"/><polygon fill="#181818" points="533,409.625,523,413.625,533,417.625,529,413.625" style="stroke:#181818;stroke-width:1.0;"/><text fill="#000000" font-family="sans-serif" font-size="13" lengthAdjust="spacing" textLength="281" x="529" y="395.5591">add a new NFT belonging to current address</text><polygon fill="#181818" points="999,438.7578,1009,442.7578,999,446.7578,1003,442.7578" style="stroke:#181818;stroke-width:1.0;"/><line style="stroke:#181818;stroke-width:1.0;" x1="522" x2="1005" y1="442.7578" y2="442.7578"/><text fill="#000000" font-family="sans-serif" font-size="13" lengthAdjust="spacing" textLength="148" x="529" y="437.6919">submit a minting event</text></g></svg>