<?xml version="1.0" encoding="UTF-8" standalone="no"?><svg xmlns="http://www.w3.org/2000/svg" xmlns:xlink="http://www.w3.org/1999/xlink" contentStyleType="text/css" height="384px" preserveAspectRatio="none" style="width:712px;height:384px;background:#FFFFFF;" version="1.1" viewBox="0 0 712 384" width="712px" zoomAndPan="magnify"><defs/><g><rect fill="none" height="46.2656" style="stroke:#000000;stroke-width:1.5;" width="449.5" x="50" y="169.5625"/><line style="stroke:#181818;stroke-width:0.5;stroke-dasharray:5.0,5.0;" x1="24" x2="24" y1="81.2969" y2="304.0938"/><line style="stroke:#181818;stroke-width:0.5;stroke-dasharray:5.0,5.0;" x1="136" x2="136" y1="81.2969" y2="304.0938"/><line style="stroke:#181818;stroke-width:0.5;stroke-dasharray:5.0,5.0;" x1="446.5" x2="446.5" y1="81.2969" y2="304.0938"/><line style="stroke:#181818;stroke-width:0.5;stroke-dasharray:5.0,5.0;" x1="557.5" x2="557.5" y1="81.2969" y2="304.0938"/><line style="stroke:#181818;stroke-width:0.5;stroke-dasharray:5.0,5.0;" x1="666.5" x2="666.5" y1="81.2969" y2="304.0938"/><text fill="#000000" font-family="sans-serif" font-size="14" lengthAdjust="spacing" textLength="32" x="5" y="77.9951">User</text><ellipse cx="24" cy="13.5" fill="#E2E2F0" rx="8" ry="8" style="stroke:#181818;stroke-width:0.5;"/><path d="M24,21.5 L24,48.5 M11,29.5 L37,29.5 M24,48.5 L11,63.5 M24,48.5 L37,63.5 " fill="none" style="stroke:#181818;stroke-width:0.5;"/><text fill="#000000" font-family="sans-serif" font-size="14" lengthAdjust="spacing" textLength="32" x="5" y="316.0889">User</text><ellipse cx="24" cy="327.8906" fill="#E2E2F0" rx="8" ry="8" style="stroke:#181818;stroke-width:0.5;"/><path d="M24,335.8906 L24,362.8906 M11,343.8906 L37,343.8906 M24,362.8906 L11,377.8906 M24,362.8906 L37,377.8906 " fill="none" style="stroke:#181818;stroke-width:0.5;"/><rect fill="#E2E2F0" height="30.2969" rx="2.5" ry="2.5" style="stroke:#181818;stroke-width:0.5;" width="152" x="60" y="50"/><text fill="#000000" font-family="sans-serif" font-size="14" lengthAdjust="spacing" textLength="138" x="67" y="69.9951">NFT Front-end Page</text><rect fill="#E2E2F0" height="30.2969" rx="2.5" ry="2.5" style="stroke:#181818;stroke-width:0.5;" width="152" x="60" y="303.0938"/><text fill="#000000" font-family="sans-serif" font-size="14" lengthAdjust="spacing" textLength="138" x="67" y="323.0889">NFT Front-end Page</text><rect fill="#E2E2F0" height="30.2969" rx="2.5" ry="2.5" style="stroke:#181818;stroke-width:0.5;" width="85" x="404.5" y="50"/><text fill="#000000" font-family="sans-serif" font-size="14" lengthAdjust="spacing" textLength="71" x="411.5" y="69.9951">Metamask</text><rect fill="#E2E2F0" height="30.2969" rx="2.5" ry="2.5" style="stroke:#181818;stroke-width:0.5;" width="85" x="404.5" y="303.0938"/><text fill="#000000" font-family="sans-serif" font-size="14" lengthAdjust="spacing" textLength="71" x="411.5" y="323.0889">Metamask</text><rect fill="#E2E2F0" height="30.2969" rx="2.5" ry="2.5" style="stroke:#181818;stroke-width:0.5;" width="117" x="499.5" y="50"/><text fill="#000000" font-family="sans-serif" font-size="14" lengthAdjust="spacing" textLength="103" x="506.5" y="69.9951">Smart Contract</text><rect fill="#E2E2F0" height="30.2969" rx="2.5" ry="2.5" style="stroke:#181818;stroke-width:0.5;" width="117" x="499.5" y="303.0938"/><text fill="#000000" font-family="sans-serif" font-size="14" lengthAdjust="spacing" textLength="103" x="506.5" y="323.0889">Smart Contract</text><rect fill="#E2E2F0" height="30.2969" rx="2.5" ry="2.5" style="stroke:#181818;stroke-width:0.5;" width="80" x="626.5" y="50"/><text fill="#000000" font-family="sans-serif" font-size="14" lengthAdjust="spacing" textLength="66" x="633.5" y="69.9951">ChainLink</text><rect fill="#E2E2F0" height="30.2969" rx="2.5" ry="2.5" style="stroke:#181818;stroke-width:0.5;" width="80" x="626.5" y="303.0938"/><text fill="#000000" font-family="sans-serif" font-size="14" lengthAdjust="spacing" textLength="66" x="633.5" y="323.0889">ChainLink</text><polygon fill="#181818" points="124,108.4297,134,112.4297,124,116.4297,128,112.4297" style="stroke:#181818;stroke-width:1.0;"/><line style="stroke:#181818;stroke-width:1.0;" x1="24" x2="130" y1="112.4297" y2="112.4297"/><text fill="#000000" font-family="sans-serif" font-size="13" lengthAdjust="spacing" textLength="88" x="31" y="107.3638">visit this page</text><line style="stroke:#181818;stroke-width:1.0;" x1="136" x2="178" y1="141.5625" y2="141.5625"/><line style="stroke:#181818;stroke-width:1.0;" x1="178" x2="178" y1="141.5625" y2="154.5625"/><line style="stroke:#181818;stroke-width:1.0;" x1="137" x2="178" y1="154.5625" y2="154.5625"/><polygon fill="#181818" points="147,150.5625,137,154.5625,147,158.5625,143,154.5625" style="stroke:#181818;stroke-width:1.0;"/><text fill="#000000" font-family="sans-serif" font-size="13" lengthAdjust="spacing" textLength="159" x="143" y="136.4966">check if wallet connected</text><path d="M50,169.5625 L114,169.5625 L114,176.6953 L104,186.6953 L50,186.6953 L50,169.5625 " fill="#EEEEEE" style="stroke:#000000;stroke-width:1.5;"/><rect fill="none" height="46.2656" style="stroke:#000000;stroke-width:1.5;" width="449.5" x="50" y="169.5625"/><text fill="#000000" font-family="sans-serif" font-size="13" font-weight="bold" lengthAdjust="spacing" textLength="19" x="65" y="182.6294">alt</text><text fill="#000000" font-family="sans-serif" font-size="11" font-weight="bold" lengthAdjust="spacing" textLength="146" x="129" y="181.7729">[wallet not connected]</text><polygon fill="#181818" points="435,203.8281,445,207.8281,435,211.8281,439,207.8281" style="stroke:#181818;stroke-width:1.0;"/><line style="stroke:#181818;stroke-width:1.0;" x1="136" x2="441" y1="207.8281" y2="207.8281"/><text fill="#000000" font-family="sans-serif" font-size="13" lengthAdjust="spacing" textLength="108" x="143" y="202.7622">connect to wallet</text><polygon fill="#181818" points="546,239.9609,556,243.9609,546,247.9609,550,243.9609" style="stroke:#181818;stroke-width:1.0;"/><line style="stroke:#181818;stroke-width:1.0;" x1="136" x2="552" y1="243.9609" y2="243.9609"/><text fill="#000000" font-family="sans-serif" font-size="13" lengthAdjust="spacing" textLength="358" x="143" y="238.895">query wallet address's NFT collections for this NFT series</text><line style="stroke:#181818;stroke-width:1.0;" x1="136" x2="178" y1="273.0938" y2="273.0938"/><line style="stroke:#181818;stroke-width:1.0;" x1="178" x2="178" y1="273.0938" y2="286.0938"/><line style="stroke:#181818;stroke-width:1.0;" x1="137" x2="178" y1="286.0938" y2="286.0938"/><polygon fill="#181818" points="147,282.0938,137,286.0938,147,290.0938,143,286.0938" style="stroke:#181818;stroke-width:1.0;"/><text fill="#FF0000" font-family="sans-serif" font-size="13" font-weight="bold" lengthAdjust="spacing" textLength="292" x="148" y="268.0278">render picture via gene data on canvas</text></g></svg>