<?xml version="1.0" encoding="UTF-8" standalone="no"?><svg xmlns="http://www.w3.org/2000/svg" xmlns:xlink="http://www.w3.org/1999/xlink" contentStyleType="text/css" height="614px" preserveAspectRatio="none" style="width:1670px;height:614px;background:#FFFFFF;" version="1.1" viewBox="0 0 1670 614" width="1670px" zoomAndPan="magnify"><defs/><g><rect fill="none" height="418.7266" style="stroke:#000000;stroke-width:1.5;" width="1654" x="10" y="98.2969"/><line style="stroke:#181818;stroke-width:0.5;stroke-dasharray:5.0,5.0;" x1="39" x2="39" y1="81.2969" y2="534.0234"/><line style="stroke:#181818;stroke-width:0.5;stroke-dasharray:5.0,5.0;" x1="392" x2="392" y1="81.2969" y2="534.0234"/><line style="stroke:#181818;stroke-width:0.5;stroke-dasharray:5.0,5.0;" x1="660.5" x2="660.5" y1="81.2969" y2="534.0234"/><line style="stroke:#181818;stroke-width:0.5;stroke-dasharray:5.0,5.0;" x1="1023.5" x2="1023.5" y1="81.2969" y2="534.0234"/><line style="stroke:#181818;stroke-width:0.5;stroke-dasharray:5.0,5.0;" x1="1444" x2="1444" y1="81.2969" y2="534.0234"/><line style="stroke:#181818;stroke-width:0.5;stroke-dasharray:5.0,5.0;" x1="1574" x2="1574" y1="81.2969" y2="534.0234"/><text fill="#000000" font-family="sans-serif" font-size="14" lengthAdjust="spacing" textLength="32" x="20" y="77.9951">User</text><ellipse cx="39" cy="13.5" fill="#E2E2F0" rx="8" ry="8" style="stroke:#181818;stroke-width:0.5;"/><path d="M39,21.5 L39,48.5 M26,29.5 L52,29.5 M39,48.5 L26,63.5 M39,48.5 L52,63.5 " fill="none" style="stroke:#181818;stroke-width:0.5;"/><text fill="#000000" font-family="sans-serif" font-size="14" lengthAdjust="spacing" textLength="32" x="20" y="546.0186">User</text><ellipse cx="39" cy="557.8203" fill="#E2E2F0" rx="8" ry="8" style="stroke:#181818;stroke-width:0.5;"/><path d="M39,565.8203 L39,592.8203 M26,573.8203 L52,573.8203 M39,592.8203 L26,607.8203 M39,592.8203 L52,607.8203 " fill="none" style="stroke:#181818;stroke-width:0.5;"/><rect fill="#E2E2F0" height="30.2969" rx="2.5" ry="2.5" style="stroke:#181818;stroke-width:0.5;" width="152" x="316" y="50"/><text fill="#000000" font-family="sans-serif" font-size="14" lengthAdjust="spacing" textLength="138" x="323" y="69.9951">NFT Front-end Page</text><rect fill="#E2E2F0" height="30.2969" rx="2.5" ry="2.5" style="stroke:#181818;stroke-width:0.5;" width="152" x="316" y="533.0234"/><text fill="#000000" font-family="sans-serif" font-size="14" lengthAdjust="spacing" textLength="138" x="323" y="553.0186">NFT Front-end Page</text><rect fill="#E2E2F0" height="30.2969" rx="2.5" ry="2.5" style="stroke:#181818;stroke-width:0.5;" width="85" x="618.5" y="50"/><text fill="#000000" font-family="sans-serif" font-size="14" lengthAdjust="spacing" textLength="71" x="625.5" y="69.9951">Metamask</text><rect fill="#E2E2F0" height="30.2969" rx="2.5" ry="2.5" style="stroke:#181818;stroke-width:0.5;" width="85" x="618.5" y="533.0234"/><text fill="#000000" font-family="sans-serif" font-size="14" lengthAdjust="spacing" textLength="71" x="625.5" y="553.0186">Metamask</text><rect fill="#E2E2F0" height="30.2969" rx="2.5" ry="2.5" style="stroke:#181818;stroke-width:0.5;" width="117" x="965.5" y="50"/><text fill="#000000" font-family="sans-serif" font-size="14" lengthAdjust="spacing" textLength="103" x="972.5" y="69.9951">Smart Contract</text><rect fill="#E2E2F0" height="30.2969" rx="2.5" ry="2.5" style="stroke:#181818;stroke-width:0.5;" width="117" x="965.5" y="533.0234"/><text fill="#000000" font-family="sans-serif" font-size="14" lengthAdjust="spacing" textLength="103" x="972.5" y="553.0186">Smart Contract</text><rect fill="#E2E2F0" height="30.2969" rx="2.5" ry="2.5" style="stroke:#181818;stroke-width:0.5;" width="80" x="1404" y="50"/><text fill="#000000" font-family="sans-serif" font-size="14" lengthAdjust="spacing" textLength="66" x="1411" y="69.9951">ChainLink</text><rect fill="#E2E2F0" height="30.2969" rx="2.5" ry="2.5" style="stroke:#181818;stroke-width:0.5;" width="80" x="1404" y="533.0234"/><text fill="#000000" font-family="sans-serif" font-size="14" lengthAdjust="spacing" textLength="66" x="1411" y="553.0186">ChainLink</text><rect fill="#E2E2F0" height="30.2969" rx="2.5" ry="2.5" style="stroke:#181818;stroke-width:0.5;" width="160" x="1494" y="50"/><text fill="#000000" font-family="sans-serif" font-size="14" lengthAdjust="spacing" textLength="146" x="1501" y="69.9951">ethereum blockchain</text><rect fill="#E2E2F0" height="30.2969" rx="2.5" ry="2.5" style="stroke:#181818;stroke-width:0.5;" width="160" x="1494" y="533.0234"/><text fill="#000000" font-family="sans-serif" font-size="14" lengthAdjust="spacing" textLength="146" x="1501" y="553.0186">ethereum blockchain</text><path d="M10,98.2969 L155,98.2969 L155,105.4297 L145,115.4297 L10,115.4297 L10,98.2969 " fill="#EEEEEE" style="stroke:#000000;stroke-width:1.5;"/><rect fill="none" height="418.7266" style="stroke:#000000;stroke-width:1.5;" width="1654" x="10" y="98.2969"/><text fill="#000000" font-family="sans-serif" font-size="13" font-weight="bold" lengthAdjust="spacing" textLength="100" x="25" y="111.3638">NFT Breeding</text><polygon fill="#181818" points="380,132.5625,390,136.5625,380,140.5625,384,136.5625" style="stroke:#181818;stroke-width:1.0;"/><line style="stroke:#181818;stroke-width:1.0;" x1="39" x2="386" y1="136.5625" y2="136.5625"/><text fill="#000000" font-family="sans-serif" font-size="13" lengthAdjust="spacing" textLength="329" x="46" y="131.4966">choose two NFT he/she owns and click breed button</text><polygon fill="#181818" points="649,161.6953,659,165.6953,649,169.6953,653,165.6953" style="stroke:#181818;stroke-width:1.0;"/><line style="stroke:#181818;stroke-width:1.0;" x1="392" x2="655" y1="165.6953" y2="165.6953"/><text fill="#000000" font-family="sans-serif" font-size="13" lengthAdjust="spacing" textLength="245" x="399" y="160.6294">wait for signature for breeding process</text><polygon fill="#181818" points="50,190.8281,40,194.8281,50,198.8281,46,194.8281" style="stroke:#181818;stroke-width:1.0;"/><line style="stroke:#181818;stroke-width:1.0;" x1="44" x2="660" y1="194.8281" y2="194.8281"/><text fill="#000000" font-family="sans-serif" font-size="13" lengthAdjust="spacing" textLength="204" x="56" y="189.7622">ask user to sign this transaction</text><polygon fill="#181818" points="649,219.9609,659,223.9609,649,227.9609,653,223.9609" style="stroke:#181818;stroke-width:1.0;"/><line style="stroke:#181818;stroke-width:1.0;" x1="39" x2="655" y1="223.9609" y2="223.9609"/><text fill="#000000" font-family="sans-serif" font-size="13" lengthAdjust="spacing" textLength="42" x="46" y="218.895">signed</text><polygon fill="#181818" points="1012,249.0938,1022,253.0938,1012,257.0938,1016,253.0938" style="stroke:#181818;stroke-width:1.0;"/><line style="stroke:#181818;stroke-width:1.0;" x1="661" x2="1018" y1="253.0938" y2="253.0938"/><text fill="#000000" font-family="sans-serif" font-size="13" lengthAdjust="spacing" textLength="339" x="668" y="248.0278">call breeding method, with parents' tokenID as inputs</text><line style="stroke:#181818;stroke-width:1.0;" x1="1024" x2="1066" y1="282.2266" y2="282.2266"/><line style="stroke:#181818;stroke-width:1.0;" x1="1066" x2="1066" y1="282.2266" y2="295.2266"/><line style="stroke:#181818;stroke-width:1.0;" x1="1025" x2="1066" y1="295.2266" y2="295.2266"/><polygon fill="#181818" points="1035,291.2266,1025,295.2266,1035,299.2266,1031,295.2266" style="stroke:#181818;stroke-width:1.0;"/><text fill="#FF0000" font-family="sans-serif" font-size="13" font-weight="bold" lengthAdjust="spacing" textLength="146" x="1036" y="277.1606">check prerequisites</text><line style="stroke:#181818;stroke-width:1.0;" x1="1024" x2="1066" y1="324.3594" y2="324.3594"/><line style="stroke:#181818;stroke-width:1.0;" x1="1066" x2="1066" y1="324.3594" y2="337.3594"/><line style="stroke:#181818;stroke-width:1.0;" x1="1025" x2="1066" y1="337.3594" y2="337.3594"/><polygon fill="#181818" points="1035,333.3594,1025,337.3594,1035,341.3594,1031,337.3594" style="stroke:#181818;stroke-width:1.0;"/><text fill="#000000" font-family="sans-serif" font-size="13" lengthAdjust="spacing" textLength="365" x="1031" y="319.2935">get parents' metadata representation inside the contract</text><polygon fill="#181818" points="1432,362.4922,1442,366.4922,1432,370.4922,1436,366.4922" style="stroke:#181818;stroke-width:1.0;"/><line style="stroke:#181818;stroke-width:1.0;" x1="1024" x2="1438" y1="366.4922" y2="366.4922"/><text fill="#000000" font-family="sans-serif" font-size="13" lengthAdjust="spacing" textLength="230" x="1031" y="361.4263">random number generation request</text><polygon fill="#181818" points="1035,391.625,1025,395.625,1035,399.625,1031,395.625" style="stroke:#181818;stroke-width:1.0;"/><line style="stroke:#181818;stroke-width:1.0;" x1="1029" x2="1443" y1="395.625" y2="395.625"/><text fill="#000000" font-family="sans-serif" font-size="13" lengthAdjust="spacing" textLength="287" x="1041" y="390.5591">random number generation success callback</text><line style="stroke:#181818;stroke-width:1.0;" x1="1024" x2="1066" y1="424.7578" y2="424.7578"/><line style="stroke:#181818;stroke-width:1.0;" x1="1066" x2="1066" y1="424.7578" y2="437.7578"/><line style="stroke:#181818;stroke-width:1.0;" x1="1025" x2="1066" y1="437.7578" y2="437.7578"/><polygon fill="#181818" points="1035,433.7578,1025,437.7578,1035,441.7578,1031,437.7578" style="stroke:#181818;stroke-width:1.0;"/><text fill="#FF0000" font-family="sans-serif" font-size="13" font-weight="bold" lengthAdjust="spacing" textLength="401" x="1036" y="419.6919">combine parents' gene based on this random number</text><line style="stroke:#181818;stroke-width:1.0;" x1="1024" x2="1066" y1="466.8906" y2="466.8906"/><line style="stroke:#181818;stroke-width:1.0;" x1="1066" x2="1066" y1="466.8906" y2="479.8906"/><line style="stroke:#181818;stroke-width:1.0;" x1="1025" x2="1066" y1="479.8906" y2="479.8906"/><polygon fill="#181818" points="1035,475.8906,1025,479.8906,1035,483.8906,1031,479.8906" style="stroke:#181818;stroke-width:1.0;"/><text fill="#000000" font-family="sans-serif" font-size="13" lengthAdjust="spacing" textLength="281" x="1031" y="461.8247">add a new NFT belonging to current address</text><polygon fill="#181818" points="1562,505.0234,1572,509.0234,1562,513.0234,1566,509.0234" style="stroke:#181818;stroke-width:1.0;"/><line style="stroke:#181818;stroke-width:1.0;" x1="1024" x2="1568" y1="509.0234" y2="509.0234"/><text fill="#000000" font-family="sans-serif" font-size="13" lengthAdjust="spacing" textLength="156" x="1031" y="503.9575">submit a breeding event</text></g></svg>